<svg width="366" height="386" version="1.1" xmlns="http://www.w3.org/2000/svg" desc="Created with imagetracer.js version 1.2.6" ><path fill="rgb(46,79,71)" stroke="rgb(46,79,71)" stroke-width="1" opacity="1" d="M 81.5 102 L 116.5 102 L 118.5 103 L 119.5 102 L 128.5 102 L 130 105 Q 121 103.8 118 109.5 L 121 120.5 L 144 170 Q 146.7 171.1 146 168.5 L 167 122.5 Q 169.9 117.9 169 109.5 Q 166 103.8 157 105 L 158.5 102 L 160.5 102 L 194.5 102 L 195 105 Q 183 105.4 178 113.5 L 148 175.5 L 148 220.5 L 151.5 226 L 155.5 228 L 166 229.5 L 164.5 231 L 111 231 L 112.5 228 Q 123.3 229.3 127 223.5 L 128 220.5 L 128 201.5 Q 130.3 200.3 129 195.5 L 128 194.5 L 128 177.5 L 124 168.5 L 101 121.5 Q 96.8 112.8 89.5 107 L 80 105 L 81.5 102 Z " /><path fill="rgb(46,79,71)" stroke="rgb(46,79,71)" stroke-width="1" opacity="1" d="M 169.5 150 L 233.5 150 L 235 151.5 L 235 163.5 L 233.5 164 L 232.5 165 L 184 165 L 184 216.5 L 185.5 218 L 230.5 218 L 232 216.5 L 232 166.5 L 232.5 166 L 242.5 166 Q 243.8 163.8 248.5 165 L 250 166.5 L 250 212.5 L 245.5 218 L 233.5 219 L 232 220.5 L 232 229.5 L 233.5 231 Q 247.1 228.9 251 236.5 L 253 241.5 L 253 283.5 L 251.5 285 L 235 285 L 235 297.5 L 234.5 298 L 168 298 L 168 151.5 L 169.5 150 Z M 184 232 L 184 283 L 234 283 L 234 232 L 184 232 Z " /><path fill="rgb(46,79,71)" stroke="rgb(46,79,71)" stroke-width="1" opacity="1" d="M 75.5 184 Q 79.7 182.7 78 187.5 L 54 205.5 L 78 222.5 Q 79.9 227.9 76.5 227 L 46 205.5 L 75.5 184 Z " /><path fill="rgb(46,79,71)" stroke="rgb(46,79,71)" stroke-width="1" opacity="1" d="M 278.5 184 L 309 205.5 L 307.5 208 L 277 228 Q 275.8 222.5 279.5 221 L 301 207 L 299.5 204 L 277 188.5 Q 276.3 184.8 278.5 184 Z " /><path fill="rgb(248,243,237)" stroke="rgb(248,243,237)" stroke-width="1" opacity="1" d="M 0 0 L 366 0 L 366 386 L 0 386 L 0 0 Z M 82 102 L 80 105 L 90 107 Q 97 113 101 122 L 124 169 L 128 178 L 128 195 L 129 196 Q 130 200 128 202 L 128 221 L 127 224 Q 123 229 113 228 L 111 231 L 165 231 L 166 230 L 156 228 L 152 226 L 148 221 L 148 176 L 178 114 Q 183 105 195 105 L 195 102 L 161 102 L 159 102 L 157 105 Q 166 104 169 110 Q 170 118 167 123 L 146 169 Q 147 171 144 170 L 121 121 L 118 110 Q 121 104 130 105 L 129 102 L 120 102 L 119 103 L 117 102 L 82 102 Z M 170 150 L 168 152 L 168 298 L 235 298 L 235 298 L 235 285 L 252 285 L 253 284 L 253 242 L 251 237 Q 247 229 234 231 L 232 230 L 232 221 L 234 219 L 246 218 L 250 213 L 250 167 L 249 165 Q 244 164 243 166 L 233 166 L 232 167 L 232 217 L 231 218 L 186 218 L 184 217 L 184 165 L 233 165 L 234 164 L 235 164 L 235 152 L 234 150 L 170 150 Z M 76 184 L 46 206 L 77 227 Q 80 228 78 223 L 54 206 L 78 188 Q 80 183 76 184 Z M 279 184 Q 276 185 277 189 L 300 204 L 301 207 L 280 221 Q 276 223 277 228 L 308 208 L 309 206 L 279 184 Z " /><path fill="rgb(248,243,237)" stroke="rgb(248,243,237)" stroke-width="1" opacity="1" d="M 184 232 L 234 232 L 234 283 L 184 283 L 184 232 Z " /></svg>
